<svg xmlns="http://www.w3.org/2000/svg" viewBox="0 0 32 32"><defs><style>.cls-1{fill:none;}</style></defs><g id="Ebene_10" data-name="Ebene 10"><rect class="cls-1" width="32" height="32"/></g><g id="Eye"><path d="M16,8.34c10.89,0,13.43,5.93,13.92,7.58-.63,1.66-3.66,7.74-13.92,7.74S2.72,17.6,2.08,15.92C2.58,14.25,5.13,8.34,16,8.34m0-2C1.6,6.34,0,16,0,16s2.49,9.66,16,9.66S32,16,32,16,30.4,6.34,16,6.34Z" transform="translate(0)"/><path d="M16,12a4,4,0,1,1-4,4,4,4,0,0,1,4-4m0-2a6,6,0,1,0,6,6,6,6,0,0,0-6-6Z" transform="translate(0)"/></g></svg>