<svg xmlns="http://www.w3.org/2000/svg" viewBox="0 0 32 32"><defs><style>.cls-1,.cls-2,.cls-3,.cls-4,.cls-5{fill:none;}.cls-2,.cls-3,.cls-4,.cls-5{stroke:#000;stroke-miterlimit:10;stroke-width:2px;}.cls-3,.cls-4,.cls-5{stroke-linecap:round;}.cls-4{stroke-dasharray:4.66 2.8;}.cls-5{stroke-dasharray:0.9 3.62;}</style></defs><g id="Ebene_10" data-name="Ebene 10"><rect class="cls-1" width="32" height="32"/></g><g id="dynamic"><circle class="cls-2" cx="22.53" cy="9.47" r="7.24"/><path class="cls-3" d="M21.51,20.73a7.28,7.28,0,0,1-2,1.44" transform="translate(0)"/><path class="cls-4" d="M16.77,22.85a7.26,7.26,0,0,1-7.41-9" transform="translate(0)"/><path class="cls-3" d="M9.83,12.53a7.28,7.28,0,0,1,1.44-2" transform="translate(0)"/><path class="cls-3" d="M15.69,26.55c-.12.12-.24.24-.37.35" transform="translate(0)"/><path class="cls-5" d="M12.12,28.51a7.25,7.25,0,0,1-8-10.32" transform="translate(0)"/><path class="cls-3" d="M5.1,16.68c.11-.13.23-.25.35-.37" transform="translate(0)"/></g></svg>