<?xml version="1.0" encoding="UTF-8"?><svg xmlns="http://www.w3.org/2000/svg" viewBox="0 0 32.08 32"><defs><style>.c{fill:none;}.d{fill:#fff;}</style></defs><g id="a"><rect class="c" x=".04" width="32" height="32"/></g><g id="b"><polygon class="d" points="11.04 6 16.04 0 21.04 6 11.04 6"/><polygon class="d" points="7.81 31.29 .04 32 .74 24.22 7.81 31.29"/><polygon class="d" points="31.33 24.22 32.04 32 24.26 31.29 31.33 24.22"/><path class="d" d="M26.74,6.7L2.92,14.19,14.96,31.59l.28,.41,11.09-12.12,1.28-13.44-.86,.27Zm-2.26,11.52l-6.44-1.46,7.13-5.78-.69,7.23Zm-8.92-2.02l-7.2-1.63,15.04-4.73-7.84,6.35Zm-.08,2.03l-.18,10.33L6.8,16.28l8.68,1.96Zm1.99,.45l6,1.36-6.14,6.71,.14-8.06Z"/></g></svg>