<svg xmlns="http://www.w3.org/2000/svg" viewBox="0 0 32 32"><defs><style>.cls-1,.cls-2{fill:none;}.cls-2{stroke:#1d1d1b;stroke-miterlimit:10;stroke-width:2px;}.cls-3{fill:#1d1d1b;}</style></defs><g id="Ebene_10" data-name="Ebene 10"><rect class="cls-1" width="32" height="32"/></g><g id="Orbit"><path class="cls-2" d="M22.8,10.09c4.54,1.15,8,3.37,8,5.91,0,3.73-5.78,6.74-14.78,6.74S1.22,19.73,1.22,16c0-2.16,2.49-4.09,6-5.32" transform="translate(0)"/><polygon class="cls-3" points="24.36 17.17 20.72 9.51 28.38 5.86 24.36 17.17"/><polygon class="cls-3" points="19.04 14.21 12.91 20.08 7.04 13.96 19.04 14.21"/><path class="cls-2" d="M13.1,17.42c0-.46,0-.94,0-1.42-.17-9,2.21-14.83,5.28-14.88,1.3,0,2.52,1.27,3.5,3.33" transform="translate(0)"/><path class="cls-2" d="M22.49,24.81c-1.08,3.57-2.68,6-4.47,6s-3.53-2.11-4.61-5.78" transform="translate(0)"/></g></svg>