<svg xmlns="http://www.w3.org/2000/svg" viewBox="0 0 32 32"><defs><style>.cls-1,.cls-3{fill:none;}.cls-2{fill:#1d1d1b;}.cls-3{stroke:#1d1d1b;stroke-miterlimit:10;stroke-width:2px;}</style></defs><g id="Ebene_10" data-name="Ebene 10"><rect class="cls-1" width="32" height="32"/></g><g id="Lookout_Move" data-name="Lookout Move"><polygon class="cls-2" points="11 6 16 0 21 6 11 6"/><polygon class="cls-2" points="7.78 31.29 0 32 0.71 24.22 7.78 31.29"/><polygon class="cls-2" points="31.29 24.22 32 32 24.22 31.29 31.29 24.22"/><path class="cls-2" d="M17.63,23.48" transform="translate(0)"/><path class="cls-2" d="M10.84,15" transform="translate(0)"/><polygon class="cls-3" points="16.46 16.73 26.35 8.71 25.33 19.45 16.25 29.38 16.46 16.73"/><polyline class="cls-3" points="27.01 7.66 4.48 14.74 15.74 31.02"/><line class="cls-3" x1="25.33" y1="19.45" x2="4.48" y2="14.74"/><path class="cls-3" d="M5.75,14.61" transform="translate(0)"/><polygon class="cls-2" points="14.87 31.52 15.18 32 15.63 30.86 14.87 31.52"/><polygon class="cls-2" points="26.61 6.75 27.52 6.46 27.01 7.45 26.61 6.75"/></g></svg>