<?xml version="1.0" encoding="UTF-8"?><svg xmlns="http://www.w3.org/2000/svg" viewBox="0 0 32.08 32"><defs><style>.c{fill:none;}</style></defs><g id="a"><rect class="c" x=".04" width="32" height="32"/></g><g id="b"><path d="M14.32,30.26s-.07,0-.1,0c-3.74-.35-7.16-2.22-9.62-5.25-.36-.45-.29-1.1,.15-1.47,.45-.36,1.1-.29,1.47,.15,2.1,2.59,5.01,4.19,8.19,4.49,.57,.05,.99,.56,.94,1.14-.05,.54-.5,.94-1.04,.94Zm13.01-6.92c-.16,0-.33-.04-.49-.12-.51-.27-.7-.9-.44-1.41,.96-1.82,1.47-3.88,1.47-5.96s-.47-3.92-1.35-5.61c-.27-.51-.07-1.14,.44-1.41,.51-.27,1.14-.07,1.41,.44,1.04,1.99,1.59,4.27,1.59,6.58s-.59,4.81-1.71,6.93c-.19,.35-.55,.56-.92,.56ZM3.49,10.82h-.03c-.56-.25-.78-.91-.5-1.45,1.56-3.02,4.13-5.36,7.32-6.66,.53-.22,1.14,.04,1.36,.57s-.04,1.14-.57,1.36c-2.74,1.11-4.94,3.13-6.27,5.72-.24,.47-.82,.67-1.3,.46Z"/><path d="M15.41,24.24c-1.16,0-2.32-.23-3.43-.71-2.07-.9-3.62-2.54-4.38-4.61-.76-2.07-.62-4.33,.38-6.35,2.05-4.13,7.15-5.99,11.38-4.15,2.07,.9,3.62,2.54,4.38,4.61,.76,2.07,.62,4.33-.38,6.35-1.51,3.05-4.69,4.86-7.95,4.86Zm.51-14.45c-2.49,0-4.91,1.38-6.07,3.71-.75,1.5-.85,3.17-.29,4.7,.56,1.53,1.71,2.74,3.25,3.41,3.22,1.4,7.12-.02,8.68-3.17,.75-1.5,.85-3.18,.29-4.71-.56-1.53-1.71-2.74-3.25-3.41h0c-.84-.37-1.73-.54-2.61-.54Z"/></g></svg>